<svg xmlns="http://www.w3.org/2000/svg" id="Layer_1" version="1.1" viewBox="3.88 263.62 1272.25 488.84">
  <!-- Generator: Adobe Illustrator 29.3.0, SVG Export Plug-In . SVG Version: 2.1.0 Build 146)  -->
  <defs>
    <style>
      .st0, .st1, .st2 {
        fill: #fff;
      }

      .st1 {
        isolation: isolate;
      }

      .st2 {
        font-family: Inter-Regular, Inter;
        font-size: 76.39px;
      }
    </style>
  </defs>
  <g>
    <path class="st0" d="M3.88,263.62h81.93c31.92,0,55.61,4.74,71.1,14.22,15.48,9.48,23.22,24.24,23.22,44.26,0,13.17-3.37,24.42-10.12,33.74-6.75,9.32-15.64,15.32-26.67,17.99v1.61c14.56,3.86,25.11,10.28,31.65,19.28,6.53,9,9.8,20.67,9.8,35.02,0,21.32-8.01,38.1-24.01,50.37-16.02,12.27-37.84,18.4-65.47,18.4H3.88v-234.88ZM67.33,353.75h19.12c9.1,0,16.15-1.87,21.12-5.62,4.99-3.75,7.47-9.32,7.47-16.71,0-13.17-9.96-19.76-29.88-19.76h-17.84v42.09ZM67.33,400.18v49.32h22.33c19.81,0,29.72-8.36,29.72-25.06,0-7.82-2.65-13.82-7.95-17.99-5.3-4.18-12.99-6.27-23.06-6.27h-21.05Z"/>
    <path class="st0" d="M608.46,425.32c0,14.09-3.7,26.59-11.09,37.52-7.39,10.93-18.05,19.42-31.97,25.48-13.93,6.06-30.26,9.09-49,9.09-15.64,0-28.76-1.06-39.36-3.18-10.6-2.12-21.63-5.83-33.09-11.11v-54.68c12.1,6.01,24.69,10.7,37.75,14.06,13.06,3.37,25.06,5.05,35.99,5.05,9.43,0,16.33-1.58,20.72-4.74,4.39-3.16,6.59-7.22,6.59-12.2,0-3.11-.88-5.83-2.65-8.15-1.77-2.33-4.61-4.69-8.51-7.07-3.91-2.38-14.33-7.25-31.25-14.6-15.32-6.73-26.8-13.26-34.46-19.58-7.66-6.32-13.34-13.56-17.03-21.75-3.69-8.18-5.54-17.87-5.54-29.05,0-20.92,7.87-37.23,23.62-48.94,15.74-11.7,37.37-17.55,64.9-17.55,24.31,0,49.1,5.44,74.39,16.31l-19.44,47.38c-21.96-9.73-40.91-14.6-56.87-14.6-8.25,0-14.25,1.4-17.99,4.19-3.75,2.8-5.62,6.27-5.62,10.41,0,4.46,2.38,8.44,7.15,11.96,4.76,3.52,17.7,9.94,38.8,19.26,20.24,8.81,34.3,18.25,42.17,28.35,7.87,10.1,11.81,22.81,11.81,38.14Z"/>
    <path class="st0" d="M734.64,498.51h-63.46v-182.99h-57.36v-51.89h178.01v51.89h-57.2v182.99Z"/>
    <path class="st0" d="M1026.04,380.99c0,38.39-9.69,67.58-29.08,87.55-19.39,19.98-47.77,29.97-85.15,29.97s-65.1-10.04-84.75-30.12c-19.66-20.08-29.48-49.32-29.48-87.71s9.77-66.98,29.32-87.01c19.54-20.03,47.95-30.04,85.22-30.04s65.71,9.94,84.99,29.81c19.28,19.87,28.92,49.06,28.92,87.55ZM864.42,380.99c0,44.12,15.8,66.17,47.4,66.17,16.06,0,27.98-5.36,35.75-16.07,7.76-10.72,11.64-27.42,11.64-50.1s-3.93-39.61-11.81-50.49c-7.87-10.87-19.63-16.31-35.27-16.31-31.81,0-47.71,22.27-47.71,66.8Z"/>
    <path class="st0" d="M1275.64,498.51h-83.22l-85.8-165.48h-1.45c2.04,26.03,3.06,45.9,3.06,59.6v105.87h-56.23v-234.88h82.9l85.47,163.23h.96c-1.5-23.67-2.25-42.68-2.25-57.03v-106.19h56.55v234.88Z"/>
    <g>
      <path class="st0" d="M276.64,381.34l-.74-.08c1.73.21,2.03.25,2.03.25,0,0-.08-.06.51-.11l.37-.03c-.5,0-1.04.01-1.19.03-.3.03-.98-.06-.98-.06Z"/>
      <path class="st0" d="M272.04,378.61c.45-.04.53.03.83,0,.3-.03.3-.1.58-.12.29-.02.73-.14.73-.14l-1.62.15-.73.13c.07,0,.14,0,.22-.01Z"/>
    </g>
    <g>
      <path class="st0" d="M247.29,478.23c.43-1.01.86-2.04,1.01-3.13.21-1.55-.27-3.29.31-4.78.46-1.2,1.56-2.18,2.19-3.3,1.48-2.61,2.77-5.33,3.84-8.13.79-2.08,1.31-4.2,2.4-6.13,1.09-1.93,2.36-3.75,3.59-5.59,2.87-4.33,3.84-9.55,5.03-14.51.03-.13,1.77-7.34,1.77-7.34,2.25-7.39,4.58-14.53,8.79-21.09,1.65-2.57,3.43-4.93,4.87-7.63.75-1.41,1.49-2.85,2.14-4.32.51-1.17,1.84-3.35,1.84-4.61.18-.46.37-.92.38-1.41.06-1.7-2.13-2.43-3.07-3.5-.34-.38-.65-.8-1.03-1.13-1.28-1.09-2.87-.25-4.34-.31-.09,0-.17-.01-.26-.02-1.7-.2-3.24-1.13-4.84-1.65-1.94-.62-4.01-.67-6.03-.94-2.67-.36-4.19-1.72-6.53-2.72-7.44-3.2-14.61-6.42-22.57-8.24-3.66-1.03-3.4,2.6-4.08,5.14-.16.62-1.53.19-3.11-.16-.38-.08-2.25-.51-1.81-1.5.43-.98.88-3.94,1-4.66.14-.83-.75-1.25-1.87-2.4-.83-.86-.94-1.97-.89-3.09.19-3.94,2.88-1.3,1.54-3.68-.41-.73-.1-2-.05-2.82.22-3.66,1.09-2.5,1.55-3.87.29-.86.74-2.49,1.09-3.37.46-1.16.69-2.17.82-3.13.23-1.74.11-3.36.33-5.54.27-2.64,2.65-3.8,3.57-5.98.51-1.2.55-2.87.79-4.15,3.19-16.71,6.09-33.5,9.57-50.15,0-.03.06-.3.14-.68-7.92,4.32-14.97,9.64-21.13,15.95-19.55,20.03-29.32,49.03-29.32,87.01s9.82,67.63,29.48,87.71c6.01,6.14,12.84,11.34,20.46,15.6.81-1.92,1.62-3.84,2.43-5.76Z"/>
      <path class="st0" d="M370.03,476.16c-1.27-2.23-2.61-4.44-3.84-6.68-1.04-1.89-2.55-3.27-3.78-5.02-.42-.61-.77-1.26-1.07-1.94-.78-1.78-1.33-3.59-2.83-4.91-5.45-4.8-10.31-10.26-15.81-15.03-5.75-4.99-11.86-9.6-18.54-13.29-1.09-.6-9.32-4.56-8.61-6.26-.64,1.52-2.07,1.91-3.53,2.27-.59.14-1.13.37-1.3,1.02-.1.37-.06.77-.06,1.15.01,3.44-2.52,6.37-4.46,8.98-2.47,3.32-5.02,6.59-7.63,9.8-3.36,4.13-5.61,9.03-10.01,12.27-1.62,1.19-2.38,3.11-3.58,4.65-.6.78-1.34,1.34-1.79,2.23-.46.93-.64,1.98-1,2.95-.24.65-.57,1.25-.9,1.86-.52.96-1.07,1.96-1.84,2.75-.68.7-1.56.99-2.28,1.62-.87.77-1.48,2.09-2.04,3.11-1.22,2.24-2.13,4.64-2.91,7.07-.92,2.87-2.1,4.95-3.84,7.38-.47.32-.93.64-1.39.96,12.51,3.6,26.55,5.41,42.14,5.41,25.54,0,46.88-4.67,64.02-14-1.49-2.62-1.63-5.7-3.14-8.34Z"/>
      <path class="st0" d="M394.46,293.43c-19.28-19.87-47.61-29.81-84.99-29.81-17.33,0-32.72,2.19-46.22,6.53-.03.15-.06.27-.06.27l-.17.62-.32.7-.62,1.55c-.09.29-.18.59-.27.88-.32,1.07-.65,2.15-.97,3.22-3.69,12.24-7.39,24.47-11.13,36.7-1.86,6.09-4.48,12.3-5.44,18.61-.04.24.02.68.25.84.47.34.91.67,1.34,1.06.8.72.93,2.69.3,3.53-.29.39-.63.7-.79,1.17,0,0-.18.54-.18.54.11,1.14.78,2.04.28,3.18-.38.87-1.25,1.49-1.85,2.2,0,0-.2.24-.2.24-.08.32-.18.68.2.87.43.27,1.23-.18,1.6-.38.3-.17.45-.47.72-.63,1.72-1.04,3.26-.6,5.21-.79.37-.03,1.14-.17,1.35-.52.06-.1.07-.21.08-.32.07-.77.1-1.43.3-2.18,1.05-3.94,1.93-7.91,3.06-11.81.99-3.44,2.66-6.93,5.46-9.27,1.95-1.63,3.84-2.89,6.34-3.48,2.1-.49,4.36-.65,6.37-1.32,1.56-.52,2.17-2.05,3.01-3.36.37-.57.71-1.31,1.24-1.75.16-.14.92-.43.97-.59.15-.42-.08-.83-.4-1.09,0,0-.41-.34-.41-.34-4.04-3.54-3.33-8.82-2.1-13.61.99-3.87,3.07-7.6,6.55-9.73,3.17-1.93,7.99-2.59,11.63-2.01,5.84.93,13.18,4.83,14.54,11.1.27,1.25,1.26,1.91,2.35,2.78,1.13.91,2.66,1.7,4.01,2.24,1.32.52,2.72.73,4.06,1.18.87.29,1.66.85,1.79,1.96,0,.02.04.37.04.37l-.2.39c-.44.5-1.08.55-1.73.65-1.84.29-3.75.27-5.61.4-1.32.09-4.87-.32-5.17,1.36-.27,1.49-.16,2.39-.88,3.76-.32.62-1.44,2.23-.77,2.92.82.85,3.78.78,4.91,1.18,2.2.76,2.2.77,3.05,1.18,1.13.55,2.15,1.31,3.1,2.13,1.95,1.68,3.57,3.69,5.31,5.57,3.15,3.41,5.95,7.13,8.59,10.93,2.27,4.09,1.4,8.46,1.42,12.88.02,4.59.96,9.11,1.42,13.66.6,5.98,1.78,11.9,2.3,17.89.18,2.11.55,3.57,2.05,5.06,1.45,1.44,2.36,3.24,3.09,5.13,5.11,13.31,18.28,21.28,25.8,33.07,1.82,2.86,3.44,5.84,4.95,8.88,2.28,4.58,4.72,9.2,6.71,13.89.51,1.21,1.03,2.48,1.35,3.76.32,1.31.2,2.71.73,3.97.14.32.31.63.49.93,1.68,2.88,3.18,5.88,5.01,8.67.64.98.94,1.93,1.3,3.03.14,1.43.16,2.68,1.21,3.78.87.91,1.47,1.95,2.07,3.02.81-.77,1.63-1.53,2.41-2.34,19.39-19.98,29.08-49.16,29.08-87.55s-9.64-67.68-28.92-87.55Z"/>
    </g>
    <g>
      <path class="st0" d="M47.58,599.04c0,5.87-2.12,10.47-6.37,13.82-4.24,3.34-10.1,5.01-17.56,5.01s-13.58-1.16-18.33-3.48v-10.2c3.01,1.41,6.21,2.53,9.59,3.34,3.39.81,6.54,1.22,9.46,1.22,4.27,0,7.43-.81,9.46-2.44,2.03-1.63,3.05-3.81,3.05-6.55,0-2.47-.93-4.56-2.8-6.28-1.86-1.71-5.72-3.75-11.56-6.09-6.02-2.44-10.26-5.22-12.73-8.35-2.47-3.13-3.7-6.89-3.7-11.29,0-5.51,1.96-9.84,5.87-13,3.91-3.16,9.16-4.74,15.75-4.74s12.61,1.38,18.87,4.15l-3.43,8.8c-5.87-2.47-11.1-3.7-15.71-3.7-3.49,0-6.14.76-7.95,2.28-1.81,1.52-2.71,3.53-2.71,6.03,0,1.72.36,3.18,1.08,4.4.72,1.22,1.91,2.37,3.57,3.45,1.66,1.08,4.64,2.51,8.94,4.29,4.84,2.02,8.39,3.9,10.65,5.64,2.26,1.75,3.91,3.72,4.97,5.91,1.05,2.2,1.58,4.79,1.58,7.77Z"/>
      <path class="st0" d="M81.29,617.86c-7.76,0-13.84-2.27-18.22-6.8-4.38-4.53-6.57-10.77-6.57-18.71s2.03-14.57,6.09-19.23c4.07-4.67,9.65-7,16.75-7,6.59,0,11.8,2,15.62,6,3.82,4,5.73,9.51,5.73,16.52v5.73h-33.27c.15,4.85,1.46,8.57,3.93,11.17,2.47,2.61,5.95,3.91,10.43,3.91,2.95,0,5.7-.28,8.24-.84,2.54-.56,5.27-1.48,8.19-2.78v8.62c-2.59,1.23-5.21,2.11-7.86,2.62-2.65.51-5.67.77-9.07.77ZM79.35,574.16c-3.37,0-6.07,1.07-8.1,3.2-2.03,2.14-3.24,5.25-3.63,9.35h22.67c-.06-4.12-1.06-7.25-2.98-9.37-1.93-2.12-4.58-3.18-7.95-3.18Z"/>
      <path class="st0" d="M137.82,566.13c2.14,0,3.89.15,5.28.45l-1.04,9.89c-1.51-.36-3.07-.54-4.69-.54-4.24,0-7.68,1.38-10.31,4.15-2.64,2.77-3.95,6.37-3.95,10.79v26.09h-10.61v-49.93h8.31l1.4,8.8h.54c1.66-2.98,3.82-5.34,6.48-7.09,2.67-1.74,5.53-2.62,8.6-2.62Z"/>
      <path class="st0" d="M167.23,616.96l-18.96-49.93h11.2l10.16,29.03c1.75,4.88,2.8,8.82,3.16,11.83h.36c.27-2.17,1.32-6.11,3.16-11.83l10.16-29.03h11.29l-19.05,49.93h-11.47Z"/>
      <path class="st0" d="M225.96,617.86c-7.76,0-13.84-2.27-18.22-6.8-4.38-4.53-6.57-10.77-6.57-18.71s2.03-14.57,6.09-19.23c4.07-4.67,9.65-7,16.75-7,6.59,0,11.8,2,15.62,6,3.82,4,5.73,9.51,5.73,16.52v5.73h-33.27c.15,4.85,1.46,8.57,3.93,11.17,2.47,2.61,5.95,3.91,10.43,3.91,2.95,0,5.7-.28,8.24-.84,2.54-.56,5.27-1.48,8.19-2.78v8.62c-2.59,1.23-5.21,2.11-7.86,2.62-2.65.51-5.67.77-9.07.77ZM224.02,574.16c-3.37,0-6.07,1.07-8.1,3.2-2.03,2.14-3.24,5.25-3.63,9.35h22.67c-.06-4.12-1.06-7.25-2.98-9.37-1.93-2.12-4.58-3.18-7.95-3.18Z"/>
      <path class="st0" d="M282.49,566.13c2.14,0,3.89.15,5.28.45l-1.04,9.89c-1.51-.36-3.07-.54-4.69-.54-4.24,0-7.68,1.38-10.31,4.15-2.64,2.77-3.95,6.37-3.95,10.79v26.09h-10.61v-49.93h8.31l1.4,8.8h.54c1.66-2.98,3.82-5.34,6.48-7.09,2.67-1.74,5.53-2.62,8.6-2.62Z"/>
      <path class="st0" d="M331.29,602.74c0,4.88-1.78,8.62-5.33,11.22-3.55,2.6-8.64,3.9-15.26,3.9s-11.99-1.01-16.03-3.03v-9.16c5.87,2.71,11.33,4.06,16.39,4.06,6.53,0,9.8-1.97,9.8-5.91,0-1.27-.36-2.32-1.08-3.16-.72-.84-1.91-1.72-3.56-2.62-1.66-.9-3.96-1.93-6.91-3.07-5.75-2.23-9.64-4.45-11.67-6.68-2.03-2.23-3.05-5.12-3.05-8.67,0-4.27,1.72-7.59,5.17-9.96,3.44-2.36,8.13-3.54,14.06-3.54s11.42,1.19,16.66,3.57l-3.43,7.99c-5.39-2.23-9.92-3.34-13.59-3.34-5.6,0-8.39,1.6-8.39,4.79,0,1.56.73,2.89,2.19,3.97,1.46,1.08,4.64,2.57,9.55,4.47,4.12,1.6,7.12,3.05,8.98,4.38,1.87,1.32,3.25,2.85,4.15,4.58.9,1.73,1.36,3.8,1.36,6.21Z"/>
      <path class="st0" d="M380.72,538.05h8.13v91.78h-8.13v-91.78Z"/>
      <path class="st0" d="M481.27,599.04c0,5.87-2.12,10.47-6.37,13.82-4.24,3.34-10.1,5.01-17.56,5.01s-13.58-1.16-18.33-3.48v-10.2c3.01,1.41,6.21,2.53,9.59,3.34,3.39.81,6.54,1.22,9.46,1.22,4.27,0,7.43-.81,9.46-2.44,2.03-1.63,3.05-3.81,3.05-6.55,0-2.47-.93-4.56-2.8-6.28-1.86-1.71-5.72-3.75-11.56-6.09-6.02-2.44-10.26-5.22-12.73-8.35-2.47-3.13-3.7-6.89-3.7-11.29,0-5.51,1.96-9.84,5.87-13,3.91-3.16,9.16-4.74,15.75-4.74s12.61,1.38,18.87,4.15l-3.43,8.8c-5.87-2.47-11.1-3.7-15.71-3.7-3.49,0-6.14.76-7.95,2.28-1.81,1.52-2.71,3.53-2.71,6.03,0,1.72.36,3.18,1.08,4.4.72,1.22,1.91,2.37,3.57,3.45,1.66,1.08,4.64,2.51,8.94,4.29,4.84,2.02,8.39,3.9,10.65,5.64,2.26,1.75,3.91,3.72,4.97,5.91,1.05,2.2,1.58,4.79,1.58,7.77Z"/>
      <path class="st0" d="M510.23,609.29c2.59,0,5.17-.41,7.77-1.22v7.99c-1.18.51-2.69.94-4.54,1.29-1.85.35-3.77.52-5.76.52-10.05,0-15.08-5.3-15.08-15.89v-26.91h-6.82v-4.7l7.31-3.88,3.61-10.56h6.54v11.11h14.22v8.04h-14.22v26.73c0,2.56.64,4.45,1.92,5.67,1.28,1.22,2.96,1.83,5.03,1.83Z"/>
      <path class="st0" d="M571.27,591.9c0,8.16-2.1,14.52-6.28,19.1-4.18,4.58-10.01,6.86-17.47,6.86-4.67,0-8.79-1.05-12.37-3.16-3.58-2.11-6.34-5.13-8.26-9.07-1.93-3.94-2.89-8.52-2.89-13.72,0-8.1,2.08-14.42,6.23-18.96,4.15-4.54,10.01-6.82,17.56-6.82s12.94,2.33,17.16,6.97c4.21,4.65,6.32,10.92,6.32,18.8ZM534.93,591.9c0,11.53,4.26,17.29,12.77,17.29s12.64-5.76,12.64-17.29-4.24-17.11-12.73-17.11c-4.45,0-7.68,1.48-9.68,4.43-2,2.95-3,7.18-3,12.69Z"/>
      <path class="st0" d="M608.19,566.13c2.14,0,3.89.15,5.28.45l-1.04,9.89c-1.51-.36-3.07-.54-4.69-.54-4.24,0-7.68,1.38-10.31,4.15-2.64,2.77-3.95,6.37-3.95,10.79v26.09h-10.61v-49.93h8.31l1.4,8.8h.54c1.66-2.98,3.82-5.34,6.48-7.09,2.67-1.74,5.53-2.62,8.6-2.62Z"/>
      <path class="st0" d="M652.65,616.96l-2.12-6.95h-.36c-2.41,3.04-4.83,5.11-7.27,6.21-2.44,1.1-5.57,1.65-9.39,1.65-4.91,0-8.74-1.32-11.49-3.97-2.75-2.65-4.13-6.4-4.13-11.24,0-5.15,1.91-9.03,5.73-11.65,3.82-2.62,9.65-4.05,17.47-4.29l8.62-.27v-2.66c0-3.19-.74-5.58-2.23-7.16-1.49-1.58-3.8-2.37-6.93-2.37-2.56,0-5.01.38-7.36,1.13-2.35.75-4.6,1.64-6.77,2.66l-3.43-7.58c2.71-1.41,5.67-2.49,8.89-3.23,3.22-.74,6.26-1.11,9.12-1.11,6.35,0,11.14,1.38,14.38,4.15,3.24,2.77,4.86,7.12,4.86,13.05v33.63h-7.59ZM636.85,609.74c3.85,0,6.95-1.08,9.28-3.23,2.33-2.15,3.5-5.17,3.5-9.05v-4.33l-6.41.27c-4.99.18-8.63,1.02-10.9,2.51-2.27,1.49-3.41,3.77-3.41,6.84,0,2.23.66,3.95,1.99,5.17,1.33,1.22,3.31,1.83,5.96,1.83Z"/>
      <path class="st0" d="M716.61,567.03v5.82l-8.53,1.58c.78,1.05,1.43,2.35,1.94,3.88.51,1.53.77,3.16.77,4.88,0,5.15-1.77,9.2-5.33,12.14-3.55,2.95-8.44,4.42-14.67,4.42-1.59,0-3.04-.12-4.33-.36-2.29,1.41-3.43,3.07-3.43,4.97,0,1.14.53,2,1.6,2.57,1.07.57,3.03.86,5.89.86h8.71c5.51,0,9.69,1.17,12.55,3.52,2.86,2.35,4.29,5.73,4.29,10.16,0,5.66-2.33,10.02-7,13.09-4.67,3.07-11.41,4.61-20.23,4.61-6.8,0-11.99-1.2-15.58-3.61-3.58-2.41-5.37-5.84-5.37-10.29,0-3.07.97-5.65,2.91-7.74,1.94-2.09,4.66-3.54,8.15-4.36-1.41-.6-2.58-1.57-3.5-2.91-.92-1.34-1.37-2.75-1.37-4.22,0-1.87.53-3.45,1.58-4.74,1.05-1.29,2.62-2.57,4.69-3.84-2.59-1.11-4.69-2.93-6.3-5.44-1.61-2.51-2.41-5.46-2.41-8.83,0-5.42,1.71-9.62,5.12-12.6,3.42-2.98,8.29-4.47,14.61-4.47,1.41,0,2.9.1,4.45.29,1.55.2,2.72.4,3.5.61h17.29ZM677.38,624.73c0,2.29,1.03,4.05,3.09,5.28,2.06,1.23,4.96,1.85,8.69,1.85,5.78,0,10.08-.83,12.91-2.48,2.83-1.65,4.24-3.85,4.24-6.59,0-2.17-.78-3.71-2.33-4.63-1.55-.92-4.43-1.38-8.65-1.38h-8.03c-3.04,0-5.46.71-7.25,2.14-1.79,1.43-2.69,3.36-2.69,5.8ZM681.94,583.19c0,3.13.8,5.54,2.42,7.22,1.61,1.69,3.92,2.53,6.93,2.53,6.14,0,9.21-3.28,9.21-9.84,0-3.25-.76-5.75-2.28-7.52-1.52-1.76-3.83-2.64-6.93-2.64s-5.39.87-6.98,2.62c-1.58,1.75-2.37,4.29-2.37,7.63Z"/>
      <path class="st0" d="M746.25,617.86c-7.76,0-13.84-2.27-18.22-6.8-4.38-4.53-6.57-10.77-6.57-18.71s2.03-14.57,6.09-19.23c4.07-4.67,9.65-7,16.75-7,6.59,0,11.8,2,15.62,6,3.82,4,5.73,9.51,5.73,16.52v5.73h-33.27c.15,4.85,1.46,8.57,3.93,11.17,2.47,2.61,5.95,3.91,10.43,3.91,2.95,0,5.7-.28,8.24-.84,2.54-.56,5.27-1.48,8.19-2.78v8.62c-2.59,1.23-5.21,2.11-7.86,2.62-2.65.51-5.67.77-9.07.77ZM744.31,574.16c-3.37,0-6.07,1.07-8.1,3.2-2.03,2.14-3.24,5.25-3.63,9.35h22.67c-.06-4.12-1.06-7.25-2.98-9.37-1.93-2.12-4.58-3.18-7.95-3.18Z"/>
      <path class="st0" d="M815.69,538.05h8.13v91.78h-8.13v-91.78Z"/>
      <path class="st0" d="M916.24,599.04c0,5.87-2.12,10.47-6.37,13.82-4.24,3.34-10.1,5.01-17.56,5.01s-13.58-1.16-18.33-3.48v-10.2c3.01,1.41,6.21,2.53,9.59,3.34,3.39.81,6.54,1.22,9.46,1.22,4.27,0,7.43-.81,9.46-2.44,2.03-1.63,3.05-3.81,3.05-6.55,0-2.47-.93-4.56-2.8-6.28-1.86-1.71-5.72-3.75-11.56-6.09-6.02-2.44-10.26-5.22-12.73-8.35-2.47-3.13-3.7-6.89-3.7-11.29,0-5.51,1.96-9.84,5.87-13,3.91-3.16,9.16-4.74,15.75-4.74s12.61,1.38,18.87,4.15l-3.43,8.8c-5.87-2.47-11.1-3.7-15.71-3.7-3.49,0-6.14.76-7.95,2.28-1.81,1.52-2.71,3.53-2.71,6.03,0,1.72.36,3.18,1.08,4.4.72,1.22,1.91,2.37,3.57,3.45s4.64,2.51,8.94,4.29c4.84,2.02,8.39,3.9,10.65,5.64,2.26,1.75,3.91,3.72,4.97,5.91,1.05,2.2,1.58,4.79,1.58,7.77Z"/>
      <path class="st0" d="M972.44,591.9c0,8.16-2.1,14.52-6.28,19.1-4.18,4.58-10.01,6.86-17.47,6.86-4.67,0-8.79-1.05-12.37-3.16-3.58-2.11-6.34-5.13-8.26-9.07-1.93-3.94-2.89-8.52-2.89-13.72,0-8.1,2.08-14.42,6.23-18.96,4.15-4.54,10.01-6.82,17.56-6.82s12.94,2.33,17.16,6.97c4.21,4.65,6.32,10.92,6.32,18.8ZM936.09,591.9c0,11.53,4.26,17.29,12.77,17.29s12.64-5.76,12.64-17.29-4.24-17.11-12.73-17.11c-4.45,0-7.68,1.48-9.68,4.43-2,2.95-3,7.18-3,12.69Z"/>
      <path class="st0" d="M994.74,616.96h-10.61v-70.25h10.61v70.25Z"/>
      <path class="st0" d="M1044.36,616.96l-1.49-6.55h-.54c-1.47,2.32-3.58,4.14-6.3,5.46-2.73,1.33-5.83,1.99-9.32,1.99-6.05,0-10.57-1.5-13.55-4.52-2.98-3.01-4.47-7.57-4.47-13.68v-32.64h10.7v30.79c0,3.82.78,6.69,2.35,8.6,1.56,1.91,4.02,2.87,7.36,2.87,4.45,0,7.73-1.33,9.82-4,2.09-2.66,3.14-7.12,3.14-13.39v-24.88h10.65v49.93h-8.35Z"/>
      <path class="st0" d="M1086.03,609.29c2.59,0,5.17-.41,7.77-1.22v7.99c-1.18.51-2.69.94-4.54,1.29-1.85.35-3.77.52-5.76.52-10.05,0-15.08-5.3-15.08-15.89v-26.91h-6.82v-4.7l7.31-3.88,3.61-10.56h6.54v11.11h14.22v8.04h-14.22v26.73c0,2.56.64,4.45,1.92,5.67,1.28,1.22,2.96,1.83,5.03,1.83Z"/>
      <path class="st0" d="M1102.4,553.8c0-1.9.52-3.36,1.56-4.38,1.04-1.02,2.52-1.53,4.45-1.53s3.32.51,4.35,1.53c1.04,1.02,1.56,2.48,1.56,4.38s-.52,3.23-1.56,4.27c-1.04,1.04-2.49,1.56-4.35,1.56s-3.41-.52-4.45-1.56c-1.04-1.04-1.56-2.46-1.56-4.27ZM1113.64,616.96h-10.61v-49.93h10.61v49.93Z"/>
      <path class="st0" d="M1172.39,591.9c0,8.16-2.1,14.52-6.28,19.1-4.18,4.58-10.01,6.86-17.47,6.86-4.67,0-8.79-1.05-12.37-3.16-3.58-2.11-6.34-5.13-8.26-9.07-1.93-3.94-2.89-8.52-2.89-13.72,0-8.1,2.08-14.42,6.23-18.96,4.15-4.54,10.01-6.82,17.56-6.82s12.94,2.33,17.16,6.97c4.21,4.65,6.32,10.92,6.32,18.8ZM1136.05,591.9c0,11.53,4.26,17.29,12.77,17.29s12.64-5.76,12.64-17.29-4.24-17.11-12.73-17.11c-4.45,0-7.68,1.48-9.68,4.43-2,2.95-3,7.18-3,12.69Z"/>
      <path class="st0" d="M1227.92,616.96h-10.65v-30.7c0-3.85-.78-6.73-2.33-8.62-1.55-1.9-4.01-2.84-7.38-2.84-4.49,0-7.77,1.33-9.84,3.97-2.08,2.65-3.12,7.09-3.12,13.32v24.88h-10.61v-49.93h8.31l1.49,6.55h.54c1.51-2.38,3.64-4.21,6.41-5.51,2.77-1.29,5.84-1.94,9.21-1.94,11.98,0,17.97,6.09,17.97,18.28v32.55Z"/>
      <path class="st0" d="M1276.12,602.74c0,4.88-1.78,8.62-5.33,11.22-3.55,2.6-8.64,3.9-15.26,3.9s-11.99-1.01-16.03-3.03v-9.16c5.87,2.71,11.33,4.06,16.39,4.06,6.53,0,9.8-1.97,9.8-5.91,0-1.27-.36-2.32-1.08-3.16-.72-.84-1.91-1.72-3.56-2.62-1.66-.9-3.96-1.93-6.91-3.07-5.75-2.23-9.64-4.45-11.67-6.68-2.03-2.23-3.05-5.12-3.05-8.67,0-4.27,1.72-7.59,5.17-9.96,3.44-2.36,8.13-3.54,14.06-3.54s11.42,1.19,16.66,3.57l-3.43,7.99c-5.39-2.23-9.92-3.34-13.59-3.34-5.6,0-8.39,1.6-8.39,4.79,0,1.56.73,2.89,2.19,3.97,1.46,1.08,4.64,2.57,9.55,4.47,4.12,1.6,7.12,3.05,8.98,4.38,1.87,1.32,3.25,2.85,4.15,4.58.9,1.73,1.36,3.8,1.36,6.21Z"/>
    </g>
  </g>
  <text class="st2" transform="translate(148.27 735.96)"><tspan x="0" y="0">A DIVISION OF</tspan></text>
  <g>
    <path class="st0" d="M773.43,669.66l-35.26,16.02v46.28l35.63,16.74,34.7-16.74v-46.28l-35.07-16.02ZM771.58,739.9l-27.87-12.72-.09-5.61,22.68,10.13v-7.43l-22.63-10.22v-20.44l27.88,12.34-.03,5.53-22.57-9.67v8.82l22.63,10.22v19.06h0ZM773.25,681.46l-21.55,9.73-6.35-2.9,27.89-12.64,28.05,12.56-6.5,2.98-21.55-9.73ZM803.44,699.26l-22.81,10.38v22.06l22.76-10.27.04,5.73-28.08,12.74v-33.68l28.09-12.77v5.81h0Z"/>
    <path class="st0" d="M854.94,732.22h-25.22v-9.16h25.22c2.72,0,4.93-2.21,4.93-4.93s-2.21-4.93-4.93-4.93h-11.13c-7.77,0-14.09-6.32-14.09-14.09s6.32-14.09,14.09-14.09h25.22v9.16h-25.22c-2.72,0-4.93,2.21-4.93,4.93s2.21,4.93,4.93,4.93h11.13c7.77,0,14.09,6.32,14.09,14.09s-6.32,14.09-14.09,14.09Z"/>
    <path class="st0" d="M1049.96,732.22h-28.11c-6.18,0-11.2-5.03-11.2-11.2v-24.8c0-6.18,5.03-11.2,11.2-11.2h28.11v9.16h-28.11c-1.13,0-2.04.92-2.04,2.04v24.8c0,1.13.92,2.04,2.04,2.04h28.11v9.16Z"/>
    <path class="st0" d="M946.76,732.22h-13.86c-7.02,0-12.73-5.71-12.73-12.73v-34.48h9.16v34.48c0,1.97,1.6,3.57,3.57,3.57h13.86c1.97,0,3.57-1.6,3.57-3.57v-34.48h9.16v34.48c0,7.02-5.71,12.73-12.73,12.73h0Z"/>
    <path class="st0" d="M901.47,732.22h-13.74c-7.05,0-12.79-5.74-12.79-12.79v-21.63c0-7.05,5.74-12.79,12.79-12.79h13.74c7.05,0,12.79,5.74,12.79,12.79v21.63c0,7.05-5.74,12.79-12.79,12.79ZM887.73,694.17c-2,0-3.63,1.63-3.63,3.63v21.63c0,2,1.63,3.63,3.63,3.63h13.74c2,0,3.63-1.63,3.63-3.63v-21.63c0-2-1.63-3.63-3.63-3.63h-13.74Z"/>
    <path class="st0" d="M998.36,732.19h10.53l-14.76-19.44c6.09-1.55,10.61-7.09,10.61-13.65,0-7.77-6.32-14.09-14.09-14.09h-25.22v47.2h9.16v-19.02h8.46l15.33,19h0ZM974.57,694.17h16.06c2.72,0,4.93,2.21,4.93,4.93s-2.21,4.93-4.93,4.93h-16.06v-9.86Z"/>
    <path class="st0" d="M1065.99,694.17h29.21v-9.16h-29.21c-5.57,0-10.11,4.54-10.11,10.11v26.99c0,5.57,4.54,10.11,10.11,10.11h29.21v-9.16h-29.21c-.52,0-.95-.43-.95-.95v-8.91h15.08v-9.16h-15.08v-8.91c0-.52.43-.95.95-.95h0Z"/>
    <path class="st1" d="M1101.11,696.22v24.8c0,6.18,5.03,11.2,11.2,11.2h28.11v-9.16h-28.11c-1.13,0-2.04-.92-2.04-2.04v-24.8c0-1.13.92-2.04,2.04-2.04h28.11v-9.16h-28.11c-6.18,0-11.2,5.03-11.2,11.2Z"/>
    <path class="st1" d="M1220.07,685.01h-27.31v47.2h27.31c6.18,0,11.2-5.03,11.2-11.2v-24.8c0-6.18-5.03-11.2-11.2-11.2h0ZM1222.11,721.01c0,1.13-.92,2.04-2.04,2.04h-18.16v-28.88h18.16c1.13,0,2.04.92,2.04,2.04v24.8Z"/>
    <path class="st1" d="M1172.87,685.01h-13.74c-7.05,0-12.79,5.74-12.79,12.79v21.63c0,7.05,5.74,12.79,12.79,12.79h13.74c7.05,0,12.79-5.74,12.79-12.79v-21.63c0-7.05-5.74-12.79-12.79-12.79ZM1176.5,719.43c0,2-1.63,3.63-3.63,3.63h-13.74c-2,0-3.63-1.63-3.63-3.63v-21.63c0-2,1.63-3.63,3.63-3.63h13.74c2,0,3.63,1.63,3.63,3.63v21.63Z"/>
    <path class="st1" d="M1246.92,694.17h29.21v-9.16h-29.21c-5.57,0-10.11,4.54-10.11,10.11v26.99c0,5.57,4.53,10.11,10.11,10.11h29.21v-9.16h-29.21c-.52,0-.95-.43-.95-.95v-8.91h15.08v-9.16h-15.08v-8.91c0-.52.43-.95.95-.95h0Z"/>
  </g>
</svg>